<?xml version="1.0" encoding="UTF-8" standalone="no"?>
<!-- Created with Inkscape (http://www.inkscape.org/) -->

<svg
   width="210mm"
   height="297mm"
   viewBox="0 0 210 297"
   version="1.1"
   id="svg1"
   xml:space="preserve"
   inkscape:version="1.3.2 (091e20ef0f, 2023-11-25)"
   sodipodi:docname="birdie.svg"
   xmlns:inkscape="http://www.inkscape.org/namespaces/inkscape"
   xmlns:sodipodi="http://sodipodi.sourceforge.net/DTD/sodipodi-0.dtd"
   xmlns="http://www.w3.org/2000/svg"
   xmlns:svg="http://www.w3.org/2000/svg"><sodipodi:namedview
     id="namedview1"
     pagecolor="#ffffff"
     bordercolor="#000000"
     borderopacity="0.25"
     inkscape:showpageshadow="2"
     inkscape:pageopacity="0.0"
     inkscape:pagecheckerboard="0"
     inkscape:deskcolor="#d1d1d1"
     inkscape:document-units="mm"
     inkscape:zoom="0.83039936"
     inkscape:cx="410.04367"
     inkscape:cy="609.94748"
     inkscape:window-width="1920"
     inkscape:window-height="1008"
     inkscape:window-x="0"
     inkscape:window-y="0"
     inkscape:window-maximized="1"
     inkscape:current-layer="layer1" /><defs
     id="defs1" /><g
     inkscape:label="Layer 1"
     inkscape:groupmode="layer"
     id="layer1"><path
       style="fill:#ffff00;stroke-width:0.546128"
       d="m 64.502614,100.75169 -1.119245,-11.37043 0.655106,-11.874895 1.50116,-5.462942 4.372421,-9.012265 4.766199,-5.100696 3.353672,-4.320558 6.759587,-4.797965 11.033432,-3.555068 11.153064,-1.621655 h 8.05536 l 13.96467,1.999035 7.48067,3.958015 7.40175,8.1685 4.3885,6.275658 1.8217,6.958745 1.72602,7.386264 1.61817,11.676627 0.27628,8.039112 c 0,0 -0.38283,3.718658 1.33822,3.718658 1.72106,0 3.74733,2.28202 3.74733,2.28202 l 5.55692,4.22077 5.26366,7.18544 5.20215,12.73223 3.73101,10.08343 0.1417,11.95717 0.63328,13.64188 -4.96458,14.03577 -6.25726,12.83667 -10.68467,8.08082 -9.57554,7.56004 -8.61962,4.98524 -13.15846,4.03778 -17.3754,1.75247 -18.145391,-2.51044 -15.834017,-4.51537 -12.058675,-9.60883 -10.132198,-11.64187 -9.344868,-16.80204 -3.964756,-11.63147 -1.269704,-11.95049 v -11.41702 l 6.517986,-16.17969 9.110666,-13.7298 z"
       id="path1" /><ellipse
       style="fill:#000000;stroke-width:0.546128"
       id="path2"
       cx="91.561836"
       cy="70.151962"
       rx="2.9171352"
       ry="4.8869958" /><ellipse
       style="fill:#000000;stroke-width:0.546128"
       id="path2-2"
       cx="129.38554"
       cy="69.566414"
       rx="2.9171352"
       ry="4.8869958" /><path
       style="fill:#000000;stroke-width:0.546128"
       d="m 106.71526,80.4679 10.41508,6.09474 -15.73679,14.52216 z"
       id="path3" /><path
       style="fill:#000000;stroke-width:0.546128"
       d="m 76.291123,210.38034 -10.551097,21.48426 -14.356014,4.63656 6.457666,1.04118 -3.289154,6.05797 9.679082,-2.8626 5.18949,4.15676 2.598742,-5.62764 -1.669092,-6.54856 z m 67.852827,-0.96855 -0.3125,24.51272 -14.35604,4.63656 6.45769,1.04118 -3.28917,6.05796 9.6791,-2.86257 5.18947,4.15674 2.59876,-5.62764 -1.66912,-6.54856 z"
       id="path4"
       sodipodi:nodetypes="cccccccccccccccccccc" /></g></svg>
